<svg width="44" height="40" viewBox="0 0 44 40" fill="none" xmlns="http://www.w3.org/2000/svg">
<g clip-path="url(#clip0_1540_3557)">
<path d="M22 20H20.5333C20.533 20.1752 20.5706 20.3488 20.6441 20.5107C20.7176 20.6727 20.8255 20.82 20.9616 20.944L22 20ZM22 37.3333C16.9432 37.3333 12.0935 35.5071 8.51783 32.2565C4.94214 29.0059 2.93333 24.5971 2.93333 20H0C0 25.3043 2.31785 30.3914 6.44365 34.1421C10.5695 37.8929 16.1652 40 22 40V37.3333ZM41.0667 20C41.0667 22.2762 40.5735 24.5302 39.6153 26.6332C38.6571 28.7362 37.2527 30.647 35.4822 32.2565C33.7117 33.8661 31.6098 35.1428 29.2965 36.0139C26.9832 36.885 24.5039 37.3333 22 37.3333V40C27.8348 40 33.4305 37.8929 37.5564 34.1421C41.6822 30.3914 44 25.3043 44 20H41.0667ZM22 2.66667C24.5039 2.66667 26.9832 3.11501 29.2965 3.98609C31.6098 4.85717 33.7117 6.13393 35.4822 7.74348C37.2527 9.35303 38.6571 11.2638 39.6153 13.3668C40.5735 15.4698 41.0667 17.7238 41.0667 20H44C44 14.6957 41.6822 9.60859 37.5564 5.85786C33.4305 2.10714 27.8348 0 22 0V2.66667ZM22 0C16.1652 0 10.5695 2.10714 6.44365 5.85786C2.31785 9.60859 0 14.6957 0 20H2.93333C2.93333 15.4029 4.94214 10.9941 8.51783 7.74348C12.0935 4.49285 16.9432 2.66667 22 2.66667V0ZM20.5333 8V20H23.4667V8H20.5333ZM20.9616 20.944L29.7616 28.944L31.8384 27.056L23.0384 19.056L20.9616 20.944Z" fill="#393939"/>
</g>
<defs>
<clipPath id="clip0_1540_3557">
<rect width="44" height="40" fill="white"/>
</clipPath>
</defs>
</svg>
