<svg width="28" height="27" viewBox="0 0 28 27" fill="none" xmlns="http://www.w3.org/2000/svg">
<path d="M26.8781 11.9564C27.1878 11.7256 27.4176 11.4038 27.5351 11.0359C27.6527 10.668 27.6522 10.2725 27.5336 9.90497C27.4151 9.5374 27.1845 9.21614 26.8741 8.98625C26.5638 8.75635 26.1893 8.62935 25.8031 8.62304L18.3031 8.33971C18.2662 8.33716 18.2309 8.32401 18.2013 8.30183C18.1718 8.27965 18.1492 8.2494 18.1365 8.21471L15.5448 1.21471C15.4146 0.858576 15.1781 0.551058 14.8673 0.33379C14.5565 0.116522 14.1865 0 13.8073 0C13.4281 0 13.0581 0.116522 12.7473 0.33379C12.4365 0.551058 12.2 0.858576 12.0698 1.21471L9.48646 8.23971C9.47369 8.2744 9.45116 8.30465 9.42159 8.32683C9.39202 8.34901 9.35666 8.36216 9.31979 8.36471L1.81979 8.64804C1.43363 8.65435 1.05912 8.78135 0.748784 9.01125C0.438446 9.24114 0.207839 9.5624 0.0892976 9.92997C-0.0292442 10.2975 -0.029776 10.693 0.0877766 11.0609C0.205329 11.4288 0.435071 11.7506 0.74479 11.9814L6.62812 16.6064C6.65757 16.6295 6.67957 16.6608 6.69142 16.6964C6.70327 16.7319 6.70444 16.7702 6.69479 16.8064L4.66979 23.9814C4.56485 24.3467 4.57502 24.7356 4.6989 25.095C4.82279 25.4543 5.05438 25.7668 5.36216 25.9899C5.66995 26.213 6.03899 26.3359 6.41908 26.3418C6.79918 26.3478 7.17187 26.2364 7.48646 26.023L13.7031 21.8564C13.7337 21.8352 13.7701 21.8239 13.8073 21.8239C13.8445 21.8239 13.8808 21.8352 13.9115 21.8564L20.1281 26.023C20.4385 26.2437 20.8098 26.3623 21.1906 26.3623C21.5714 26.3623 21.9428 26.2437 22.2531 26.023C22.561 25.802 22.7928 25.4911 22.9167 25.1329C23.0405 24.7748 23.0504 24.387 22.9448 24.023L20.9031 16.823C20.8923 16.7869 20.8929 16.7483 20.9048 16.7125C20.9168 16.6767 20.9394 16.6455 20.9698 16.623L26.8781 11.9564Z" fill="#FF4500"/>
</svg>
