<svg width="25" height="23" viewBox="0 0 25 23" fill="none" xmlns="http://www.w3.org/2000/svg">
<path d="M24.7555 11.37C24.7555 12.171 24.1106 12.7984 23.3797 12.7984H22.004L22.034 19.9275C22.034 20.0476 22.0255 20.1678 22.0126 20.2879V21.0044C22.0126 21.9878 21.243 22.7844 20.2928 22.7844H19.6049C19.5576 22.7844 19.5103 22.7844 19.4631 22.78C19.4029 22.7844 19.3427 22.7844 19.2825 22.7844H17.8852H16.8534C15.9032 22.7844 15.1336 21.9878 15.1336 21.0044V19.9364V17.0883C15.1336 16.3006 14.5188 15.6643 13.7578 15.6643H11.0063C10.2453 15.6643 9.63049 16.3006 9.63049 17.0883V19.9364V21.0044C9.63049 21.9878 8.86091 22.7844 7.91076 22.7844H6.87892H5.50744C5.44295 22.7844 5.37846 22.78 5.31397 22.7755C5.26238 22.78 5.21078 22.7844 5.15919 22.7844H4.4713C3.52115 22.7844 2.75157 21.9878 2.75157 21.0044V16.0203C2.75157 15.9802 2.75157 15.9357 2.75587 15.8957V12.7984H1.37578C0.601906 12.7984 0 12.1754 0 11.37C0 10.9694 0.12898 10.6134 0.429933 10.3019L11.4534 0.356006C11.7544 0.0445008 12.0983 0 12.3993 0C12.7002 0 13.0442 0.0890016 13.3021 0.311506L24.2826 10.3019C24.6265 10.6134 24.7985 10.9694 24.7555 11.37Z" fill="#6495ED"/>
</svg>
