<svg width="26" height="23" viewBox="0 0 26 23" fill="none" xmlns="http://www.w3.org/2000/svg">
<g clip-path="url(#clip0_1605_3070)">
<path d="M6.26649 0.211304C4.31521 0.211304 2.72876 1.48848 2.72876 3.05935V13.0275H8.91979C9.25698 13.0275 9.561 13.1788 9.71025 13.4191L10.6887 14.9945L13.4359 10.5711C13.5852 10.3308 13.8947 10.1795 14.2264 10.1795C14.5581 10.1795 14.8676 10.3308 15.0169 10.5711L16.5425 13.0275H20.4174C20.9039 13.0275 21.3019 13.3479 21.3019 13.7395C21.3019 14.1312 20.9039 14.4516 20.4174 14.4516H15.9953C15.6581 14.4516 15.354 14.3003 15.2048 14.0599L14.2264 12.4846L11.4791 16.908C11.3299 17.1483 11.0203 17.2996 10.6887 17.2996C10.357 17.2996 10.0474 17.1483 9.89819 16.908L8.37255 14.4516H2.72876V20.1477C2.72876 21.7185 4.31521 22.9957 6.26649 22.9957H20.4174C22.3687 22.9957 23.9552 21.7185 23.9552 20.1477V7.33143H16.8797C15.9013 7.33143 15.1108 6.69507 15.1108 5.9074V0.211304H6.26649ZM16.8797 0.211304V5.9074H23.9552L16.8797 0.211304Z" fill="#6495ED"/>
</g>
<defs>
<clipPath id="clip0_1605_3070">
<rect width="24.7641" height="22.7844" fill="white" transform="translate(0.959961 0.211304)"/>
</clipPath>
</defs>
</svg>
