<svg width="25" height="34" viewBox="0 0 25 34" fill="none" xmlns="http://www.w3.org/2000/svg">
<g clip-path="url(#clip0_1984_2832)">
<path d="M5.30677 0C3.35549 0 1.76904 1.89495 1.76904 4.22567V19.0155H7.96007C8.29726 19.0155 8.60129 19.24 8.75054 19.5965L9.72894 21.9339L12.4762 15.3709C12.6255 15.0143 12.935 14.7898 13.2667 14.7898C13.5983 14.7898 13.9079 15.0143 14.0571 15.3709L15.5828 19.0155H19.4577C19.9441 19.0155 20.3421 19.4909 20.3421 20.0719C20.3421 20.653 19.9441 21.1283 19.4577 21.1283H15.0355C14.6983 21.1283 14.3943 20.9039 14.2451 20.5473L13.2667 18.21L10.5194 24.773C10.3702 25.1295 10.0606 25.354 9.72894 25.354C9.39728 25.354 9.08773 25.1295 8.93848 24.773L7.41283 21.1283H1.76904V29.5797C1.76904 31.9104 3.35549 33.8054 5.30677 33.8054H19.4577C21.409 33.8054 22.9954 31.9104 22.9954 29.5797V10.5642H15.92C14.9416 10.5642 14.1511 9.62 14.1511 8.45134V0H5.30677ZM15.92 0V8.45134H22.9954L15.92 0Z" fill="#6495ED"/>
</g>
<defs>
<clipPath id="clip0_1984_2832">
<rect width="24.7641" height="33.8054" fill="white"/>
</clipPath>
</defs>
</svg>
