<svg width="22" height="24" viewBox="0 0 22 24" fill="none" xmlns="http://www.w3.org/2000/svg">
<g clip-path="url(#clip0_1605_3080)">
<path d="M21.2065 7.69205C21.3434 8.07921 21.2279 8.51087 20.9329 8.78677L19.0812 10.5401C19.1282 10.9095 19.1539 11.2877 19.1539 11.6704C19.1539 12.0531 19.1282 12.4314 19.0812 12.8007L20.9329 14.5541C21.2279 14.83 21.3434 15.2616 21.2065 15.6488C21.0184 16.1784 20.7917 16.6857 20.5309 17.1752L20.3299 17.5356C20.0476 18.0251 19.7312 18.4879 19.3848 18.9241C19.1325 19.2445 18.7134 19.3513 18.3371 19.2267L15.9551 18.439C15.3821 18.8974 14.7492 19.2801 14.0735 19.5693L13.539 22.1103C13.4535 22.5153 13.1541 22.8357 12.7607 22.9024C12.1705 23.0048 11.5633 23.0582 10.9432 23.0582C10.3231 23.0582 9.71589 23.0048 9.12575 22.9024C8.73232 22.8357 8.43298 22.5153 8.34745 22.1103L7.8129 19.5693C7.13723 19.2801 6.50433 18.8974 5.93129 18.439L3.55362 19.2311C3.17729 19.3557 2.75821 19.2445 2.5059 18.9285C2.15951 18.4924 1.84306 18.0296 1.56082 17.5401L1.35983 17.1796C1.09897 16.6901 0.872322 16.1828 0.684161 15.6532C0.547316 15.2661 0.662779 14.8344 0.95785 14.5585L2.80953 12.8052C2.76249 12.4314 2.73683 12.0531 2.73683 11.6704C2.73683 11.2877 2.76249 10.9095 2.80953 10.5401L0.95785 8.78677C0.662779 8.51087 0.547316 8.07921 0.684161 7.69205C0.872322 7.16249 1.09897 6.65518 1.35983 6.16568L1.56082 5.80522C1.84306 5.31571 2.15951 4.8529 2.5059 4.41679C2.75821 4.09639 3.17729 3.98959 3.55362 4.11419L5.93557 4.90185C6.5086 4.44349 7.14151 4.06079 7.81718 3.77153L8.35173 1.23054C8.43725 0.825581 8.7366 0.505175 9.13003 0.438424C9.72017 0.331622 10.3274 0.278221 10.9475 0.278221C11.5676 0.278221 12.1748 0.331622 12.765 0.433974C13.1584 0.500725 13.4577 0.821131 13.5433 1.22609L14.0778 3.76708C14.7535 4.05634 15.3864 4.43904 15.9594 4.8974L18.3414 4.10974C18.7177 3.98514 19.1368 4.09639 19.3891 4.41234C19.7355 4.84845 20.0519 5.31126 20.3342 5.80077L20.5352 6.16122C20.796 6.65073 21.0227 7.15804 21.2108 7.6876L21.2065 7.69205ZM10.9475 15.2305C11.8548 15.2305 12.725 14.8554 13.3666 14.1878C14.0082 13.5201 14.3686 12.6146 14.3686 11.6704C14.3686 10.7262 14.0082 9.82072 13.3666 9.15308C12.725 8.48544 11.8548 8.11036 10.9475 8.11036C10.0402 8.11036 9.16998 8.48544 8.5284 9.15308C7.88682 9.82072 7.52638 10.7262 7.52638 11.6704C7.52638 12.6146 7.88682 13.5201 8.5284 14.1878C9.16998 14.8554 10.0402 15.2305 10.9475 15.2305Z" fill="#6495ED"/>
</g>
<defs>
<clipPath id="clip0_1605_3080">
<rect width="21.8951" height="22.7844" fill="white" transform="translate(0 0.278221)"/>
</clipPath>
</defs>
</svg>
