<svg width="29" height="23" viewBox="0 0 29 23" fill="none" xmlns="http://www.w3.org/2000/svg">
<g clip-path="url(#clip0_1605_3076)">
<path d="M7.08908 0.0752716C7.99216 0.0752716 8.85825 0.450349 9.49683 1.11799C10.1354 1.78563 10.4941 2.69115 10.4941 3.63533C10.4941 4.57952 10.1354 5.48504 9.49683 6.15268C8.85825 6.82032 7.99216 7.1954 7.08908 7.1954C6.186 7.1954 5.31991 6.82032 4.68134 6.15268C4.04276 5.48504 3.68401 4.57952 3.68401 3.63533C3.68401 2.69115 4.04276 1.78563 4.68134 1.11799C5.31991 0.450349 6.186 0.0752716 7.08908 0.0752716ZM22.7524 0.0752716C23.6555 0.0752716 24.5216 0.450349 25.1601 1.11799C25.7987 1.78563 26.1575 2.69115 26.1575 3.63533C26.1575 4.57952 25.7987 5.48504 25.1601 6.15268C24.5216 6.82032 23.6555 7.1954 22.7524 7.1954C21.8493 7.1954 20.9832 6.82032 20.3446 6.15268C19.7061 5.48504 19.3473 4.57952 19.3473 3.63533C19.3473 2.69115 19.7061 1.78563 20.3446 1.11799C20.9832 0.450349 21.8493 0.0752716 22.7524 0.0752716ZM0.959961 13.3677C0.959961 10.7466 2.99449 8.61942 5.50147 8.61942H7.31892C7.99568 8.61942 8.63839 8.77518 9.21725 9.05108C9.16192 9.37149 9.13638 9.70524 9.13638 10.0434C9.13638 11.7434 9.85144 13.2698 10.9794 14.3155C10.9709 14.3155 10.9623 14.3155 10.9496 14.3155H1.86656C1.36857 14.3155 0.959961 13.8883 0.959961 13.3677ZM18.2109 14.3155C18.2024 14.3155 18.1939 14.3155 18.1811 14.3155C19.3133 13.2698 20.0241 11.7434 20.0241 10.0434C20.0241 9.70524 19.9943 9.37594 19.9432 9.05108C20.5221 8.77073 21.1648 8.61942 21.8415 8.61942H23.659C26.166 8.61942 28.2005 10.7466 28.2005 13.3677C28.2005 13.8928 27.7919 14.3155 27.2939 14.3155H18.2109ZM10.4941 10.0434C10.4941 8.91042 10.9246 7.8238 11.6909 7.02263C12.4572 6.22147 13.4965 5.77137 14.5802 5.77137C15.6639 5.77137 16.7032 6.22147 17.4695 7.02263C18.2358 7.8238 18.6663 8.91042 18.6663 10.0434C18.6663 11.1765 18.2358 12.2631 17.4695 13.0643C16.7032 13.8654 15.6639 14.3155 14.5802 14.3155C13.4965 14.3155 12.4572 13.8654 11.6909 13.0643C10.9246 12.2631 10.4941 11.1765 10.4941 10.0434ZM6.40807 21.6715C6.40807 18.3962 8.9491 15.7395 12.0818 15.7395H17.0787C20.2114 15.7395 22.7524 18.3962 22.7524 21.6715C22.7524 22.3257 22.2459 22.8597 21.6159 22.8597H7.54451C6.91883 22.8597 6.40807 22.3301 6.40807 21.6715Z" fill="#6495ED"/>
</g>
<defs>
<clipPath id="clip0_1605_3076">
<rect width="27.2405" height="22.7844" fill="white" transform="translate(0.959961 0.0752716)"/>
</clipPath>
</defs>
</svg>
