<svg width="29" height="35" viewBox="0 0 29 35" fill="none" xmlns="http://www.w3.org/2000/svg">
<g clip-path="url(#clip0_1929_2635)">
<path d="M7.08908 0.767456C7.99216 0.767456 8.85825 1.32396 9.49683 2.31455C10.1354 3.30513 10.4941 4.64865 10.4941 6.04955C10.4941 7.45045 10.1354 8.79397 9.49683 9.78455C8.85825 10.7751 7.99216 11.3316 7.08908 11.3316C6.186 11.3316 5.31991 10.7751 4.68133 9.78455C4.04276 8.79397 3.68401 7.45045 3.68401 6.04955C3.68401 4.64865 4.04276 3.30513 4.68133 2.31455C5.31991 1.32396 6.186 0.767456 7.08908 0.767456ZM22.7524 0.767456C23.6555 0.767456 24.5216 1.32396 25.1601 2.31455C25.7987 3.30513 26.1575 4.64865 26.1575 6.04955C26.1575 7.45045 25.7987 8.79397 25.1601 9.78455C24.5216 10.7751 23.6555 11.3316 22.7524 11.3316C21.8493 11.3316 20.9832 10.7751 20.3446 9.78455C19.7061 8.79397 19.3473 7.45045 19.3473 6.04955C19.3473 4.64865 19.7061 3.30513 20.3446 2.31455C20.9832 1.32396 21.8493 0.767456 22.7524 0.767456ZM0.959961 20.4895C0.959961 16.6005 2.99449 13.4445 5.50147 13.4445H7.31892C7.99568 13.4445 8.63839 13.6756 9.21725 14.0849C9.16191 14.5603 9.13638 15.0555 9.13638 15.5573C9.13638 18.0795 9.85144 20.3442 10.9794 21.8958C10.9709 21.8958 10.9623 21.8958 10.9496 21.8958H1.86656C1.36857 21.8958 0.959961 21.262 0.959961 20.4895ZM18.2109 21.8958C18.2024 21.8958 18.1939 21.8958 18.1811 21.8958C19.3133 20.3442 20.0241 18.0795 20.0241 15.5573C20.0241 15.0555 19.9943 14.5669 19.9432 14.0849C20.5221 13.669 21.1648 13.4445 21.8415 13.4445H23.659C26.166 13.4445 28.2005 16.6005 28.2005 20.4895C28.2005 21.2686 27.7919 21.8958 27.2939 21.8958H18.2109ZM10.4941 15.5573C10.4941 13.8762 10.9246 12.264 11.6909 11.0753C12.4572 9.88661 13.4965 9.2188 14.5802 9.2188C15.6639 9.2188 16.7032 9.88661 17.4695 11.0753C18.2358 12.264 18.6663 13.8762 18.6663 15.5573C18.6663 17.2384 18.2358 18.8506 17.4695 20.0393C16.7032 21.228 15.6639 21.8958 14.5802 21.8958C13.4965 21.8958 12.4572 21.228 11.6909 20.0393C10.9246 18.8506 10.4941 17.2384 10.4941 15.5573ZM6.40807 32.8099C6.40807 27.9504 8.9491 24.0087 12.0818 24.0087H17.0787C20.2114 24.0087 22.7524 27.9504 22.7524 32.8099C22.7524 33.7805 22.2459 34.5728 21.6159 34.5728H7.54451C6.91883 34.5728 6.40807 33.7871 6.40807 32.8099Z" fill="#6495ED"/>
</g>
<defs>
<clipPath id="clip0_1929_2635">
<rect width="27.2405" height="33.8054" fill="white" transform="translate(0.959961 0.767456)"/>
</clipPath>
</defs>
</svg>
