<svg width="31" height="30" viewBox="0 0 31 30" fill="none" xmlns="http://www.w3.org/2000/svg">
<path d="M31 27.1003L30.6463 26.7918C29.6429 25.9081 28.7646 24.8947 28.0352 23.7789C27.2386 22.2391 26.7612 20.5576 26.6309 18.8329V13.7532C26.6266 13.1362 26.571 12.5206 26.4644 11.9126C24.7023 11.5546 23.1195 10.6057 21.984 9.22651C20.8485 7.84734 20.23 6.12267 20.2332 4.34447C20.2332 4.12853 20.2332 3.9126 20.2332 3.69666C19.1471 3.16832 17.9802 2.82088 16.7795 2.66838V1.37275C16.7795 1.00867 16.6332 0.65951 16.3728 0.402069C16.1123 0.144629 15.7591 0 15.3908 0C15.0225 0 14.6692 0.144629 14.4088 0.402069C14.1483 0.65951 14.002 1.00867 14.002 1.37275V2.71979C11.3137 3.09466 8.85328 4.41825 7.0751 6.4462C5.29691 8.47416 4.32099 11.0696 4.32752 13.7532V18.8329C4.19723 20.5576 3.71977 22.2391 2.92315 23.7789C2.20629 24.8919 1.34215 25.9051 0.353691 26.7918L0 27.1003V30H31V27.1003Z" fill="#6495ED"/>
</svg>
