<svg width="26" height="23" viewBox="0 0 26 23" fill="none" xmlns="http://www.w3.org/2000/svg">
<g clip-path="url(#clip0_1605_3084)">
<path d="M8.31687 1.84002C8.79571 2.23608 8.8344 2.90804 8.40393 3.3486L4.92147 6.90866C4.70866 7.12672 4.40878 7.25577 4.08955 7.26022C3.77033 7.26467 3.46561 7.15342 3.23829 6.94871L1.29875 5.16868C0.848937 4.75038 0.848937 4.07396 1.29875 3.65566C1.74857 3.23735 2.48859 3.23735 2.93841 3.65566L4.00733 4.63912L6.67238 1.91567C7.10285 1.47512 7.83319 1.43952 8.31203 1.83557L8.31687 1.84002ZM8.31687 8.96015C8.79571 9.35621 8.8344 10.0282 8.40393 10.4687L4.92147 14.0288C4.70866 14.2468 4.40878 14.3759 4.08955 14.3803C3.77033 14.3848 3.46561 14.2735 3.23829 14.0688L1.29875 12.2888C0.8441 11.8705 0.8441 11.1941 1.29875 10.7802C1.75341 10.3664 2.48859 10.3619 2.93841 10.7802L4.00733 11.7637L6.67238 9.04025C7.10285 8.59969 7.83319 8.56409 8.31203 8.96015H8.31687ZM11.7945 4.41217C11.7945 3.62451 12.4861 2.98814 13.3422 2.98814H24.1765C25.0326 2.98814 25.7243 3.62451 25.7243 4.41217C25.7243 5.19983 25.0326 5.83619 24.1765 5.83619H13.3422C12.4861 5.83619 11.7945 5.19983 11.7945 4.41217ZM11.7945 11.5323C11.7945 10.7446 12.4861 10.1083 13.3422 10.1083H24.1765C25.0326 10.1083 25.7243 10.7446 25.7243 11.5323C25.7243 12.32 25.0326 12.9563 24.1765 12.9563H13.3422C12.4861 12.9563 11.7945 12.32 11.7945 11.5323ZM8.69897 18.6524C8.69897 17.8648 9.39062 17.2284 10.2467 17.2284H24.1765C25.0326 17.2284 25.7243 17.8648 25.7243 18.6524C25.7243 19.4401 25.0326 20.0764 24.1765 20.0764H10.2467C9.39062 20.0764 8.69897 19.4401 8.69897 18.6524ZM3.28182 16.5164C3.89755 16.5164 4.48807 16.7414 4.92346 17.142C5.35885 17.5426 5.60346 18.0859 5.60346 18.6524C5.60346 19.2189 5.35885 19.7622 4.92346 20.1628C4.48807 20.5634 3.89755 20.7885 3.28182 20.7885C2.66608 20.7885 2.07556 20.5634 1.64017 20.1628C1.20478 19.7622 0.960182 19.2189 0.960182 18.6524C0.960182 18.0859 1.20478 17.5426 1.64017 17.142C2.07556 16.7414 2.66608 16.5164 3.28182 16.5164Z" fill="#6495ED"/>
</g>
<defs>
<clipPath id="clip0_1605_3084">
<rect width="24.7641" height="22.7844" fill="white" transform="translate(0.959961 0.140106)"/>
</clipPath>
</defs>
</svg>
