<svg width="32" height="34" viewBox="0 0 32 34" fill="none" xmlns="http://www.w3.org/2000/svg">
<path fill-rule="evenodd" clip-rule="evenodd" d="M7.99971 15.3C8.8484 15.3 9.66233 14.9418 10.2624 14.3042C10.8626 13.6665 11.1997 12.8017 11.1997 11.9C11.1997 10.9983 10.8626 10.1334 10.2624 9.49582C9.66233 8.8582 8.8484 8.49999 7.99971 8.49999C7.15101 8.49999 6.33708 8.8582 5.73697 9.49582C5.13685 10.1334 4.79971 10.9983 4.79971 11.9C4.79971 12.8017 5.13685 13.6665 5.73697 14.3042C6.33708 14.9418 7.15101 15.3 7.99971 15.3ZM7.99971 17C8.63005 17 9.25422 16.8681 9.83659 16.6118C10.419 16.3555 10.9481 15.9798 11.3938 15.5062C11.8395 15.0327 12.1931 14.4704 12.4343 13.8517C12.6756 13.2329 12.7997 12.5697 12.7997 11.9C12.7997 11.2302 12.6756 10.5671 12.4343 9.9483C12.1931 9.32954 11.8395 8.76732 11.3938 8.29374C10.9481 7.82016 10.419 7.4445 9.83659 7.1882C9.25422 6.9319 8.63005 6.79999 7.99971 6.79999C6.72667 6.79999 5.50577 7.33731 4.60559 8.29374C3.70542 9.25018 3.19971 10.5474 3.19971 11.9C3.19971 13.2526 3.70542 14.5498 4.60559 15.5062C5.50577 16.4627 6.72667 17 7.99971 17Z" fill="#0F4C81"/>
<path fill-rule="evenodd" clip-rule="evenodd" d="M6.1663 15.1232C6.2408 15.2021 6.29991 15.2959 6.34024 15.3992C6.38057 15.5025 6.40133 15.6132 6.40133 15.725C6.40133 15.8368 6.38057 15.9475 6.34024 16.0508C6.29991 16.154 6.2408 16.2478 6.1663 16.3268L5.6255 16.8997C4.58476 18.0058 4.00004 19.5057 3.9999 21.0698V24.225C3.9999 24.4504 3.91562 24.6666 3.76559 24.826C3.61556 24.9854 3.41208 25.075 3.1999 25.075C2.98773 25.075 2.78425 24.9854 2.63422 24.826C2.48419 24.6666 2.3999 24.4504 2.3999 24.225V21.0698C2.40013 19.0549 3.15348 17.1226 4.4943 15.6978L5.0335 15.1232C5.10782 15.044 5.1961 14.9812 5.29329 14.9384C5.39048 14.8955 5.49467 14.8735 5.5999 14.8735C5.70513 14.8735 5.80932 14.8955 5.90652 14.9384C6.00371 14.9812 6.09199 15.044 6.1663 15.1232ZM25.0335 14.6132C24.959 14.6921 24.8999 14.7859 24.8596 14.8892C24.8192 14.9925 24.7985 15.1032 24.7985 15.215C24.7985 15.3268 24.8192 15.4375 24.8596 15.5408C24.8999 15.644 24.959 15.7378 25.0335 15.8168L25.5743 16.3897C26.0897 16.9373 26.4985 17.5874 26.7775 18.303C27.0564 19.0185 27.1999 19.7853 27.1999 20.5598V24.225C27.1999 24.4504 27.2842 24.6666 27.4342 24.826C27.5842 24.9854 27.7877 25.075 27.9999 25.075C28.2121 25.075 28.4156 24.9854 28.5656 24.826C28.7156 24.6666 28.7999 24.4504 28.7999 24.225V20.5598C28.7997 18.5449 28.0463 16.6126 26.7055 15.1878L26.1663 14.6132C26.092 14.534 26.0037 14.4712 25.9065 14.4284C25.8093 14.3855 25.7051 14.3635 25.5999 14.3635C25.4947 14.3635 25.3905 14.3855 25.2933 14.4284C25.1961 14.4712 25.1078 14.534 25.0335 14.6132Z" fill="#0F4C81"/>
<path fill-rule="evenodd" clip-rule="evenodd" d="M22.4001 15.3C21.5514 15.3 20.7375 14.9418 20.1374 14.3042C19.5372 13.6665 19.2001 12.8017 19.2001 11.9C19.2001 10.9983 19.5372 10.1334 20.1374 9.49582C20.7375 8.8582 21.5514 8.49999 22.4001 8.49999C23.2488 8.49999 24.0627 8.8582 24.6628 9.49582C25.263 10.1334 25.6001 10.9983 25.6001 11.9C25.6001 12.8017 25.263 13.6665 24.6628 14.3042C24.0627 14.9418 23.2488 15.3 22.4001 15.3ZM22.4001 17C21.7698 17 21.1456 16.8681 20.5632 16.6118C19.9809 16.3555 19.4517 15.9798 19.006 15.5062C18.5603 15.0327 18.2067 14.4704 17.9655 13.8517C17.7243 13.2329 17.6001 12.5697 17.6001 11.9C17.6001 11.2302 17.7243 10.5671 17.9655 9.9483C18.2067 9.32954 18.5603 8.76732 19.006 8.29374C19.4517 7.82016 19.9809 7.4445 20.5632 7.1882C21.1456 6.9319 21.7698 6.79999 22.4001 6.79999C23.6731 6.79999 24.894 7.33731 25.7942 8.29374C26.6944 9.25018 27.2001 10.5474 27.2001 11.9C27.2001 13.2526 26.6944 14.5498 25.7942 15.5062C24.894 16.4627 23.6731 17 22.4001 17ZM15.2001 22.525C14.1392 22.525 13.1218 22.9728 12.3717 23.7698C11.6215 24.5668 11.2001 25.6478 11.2001 26.775V28.985C11.2001 29.2104 11.1158 29.4266 10.9658 29.586C10.8158 29.7454 10.6123 29.835 10.4001 29.835C10.1879 29.835 9.98444 29.7454 9.83441 29.586C9.68438 29.4266 9.6001 29.2104 9.6001 28.985V26.775C9.6001 25.1969 10.1901 23.6835 11.2403 22.5677C12.2905 21.4519 13.7149 20.825 15.2001 20.825C16.6853 20.825 18.1097 21.4519 19.1599 22.5677C20.2101 23.6835 20.8001 25.1969 20.8001 26.775V28.985C20.8001 29.2104 20.7158 29.4266 20.5658 29.586C20.4158 29.7454 20.2123 29.835 20.0001 29.835C19.7879 29.835 19.5844 29.7454 19.4344 29.586C19.2844 29.4266 19.2001 29.2104 19.2001 28.985V26.775C19.2001 26.2169 19.0966 25.6642 18.8956 25.1486C18.6946 24.6329 18.4 24.1644 18.0285 23.7698C17.6571 23.3751 17.2161 23.0621 16.7308 22.8485C16.2455 22.6349 15.7254 22.525 15.2001 22.525Z" fill="#0F4C81"/>
<path fill-rule="evenodd" clip-rule="evenodd" d="M15.1999 19.975C16.0486 19.975 16.8625 19.6168 17.4626 18.9791C18.0628 18.3415 18.3999 17.4767 18.3999 16.575C18.3999 15.6732 18.0628 14.8084 17.4626 14.1708C16.8625 13.5332 16.0486 13.175 15.1999 13.175C14.3512 13.175 13.5373 13.5332 12.9372 14.1708C12.337 14.8084 11.9999 15.6732 11.9999 16.575C11.9999 17.4767 12.337 18.3415 12.9372 18.9791C13.5373 19.6168 14.3512 19.975 15.1999 19.975ZM15.1999 21.675C16.4729 21.675 17.6938 21.1377 18.594 20.1812C19.4942 19.2248 19.9999 17.9276 19.9999 16.575C19.9999 15.2224 19.4942 13.9252 18.594 12.9687C17.6938 12.0123 16.4729 11.475 15.1999 11.475C13.9269 11.475 12.706 12.0123 11.8058 12.9687C10.9056 13.9252 10.3999 15.2224 10.3999 16.575C10.3999 17.9276 10.9056 19.2248 11.8058 20.1812C12.706 21.1377 13.9269 21.675 15.1999 21.675Z" fill="#0F4C81"/>
</svg>
